<?xml version="1.0" encoding="utf-8"?>
<!-- Generator: Adobe Illustrator 18.1.1, SVG Export Plug-In . SVG Version: 6.00 Build 0)  -->
<svg version="1.1" id="Layer_1" xmlns="http://www.w3.org/2000/svg" xmlns:xlink="http://www.w3.org/1999/xlink" x="0px" y="0px"
	 viewBox="0 0 650.5 135" enable-background="new 0 0 650.5 135" xml:space="preserve">
<g>
	<path fill="#CE1126" d="M128.9,2.2c-17-1.3-31,13.4-32.2,19.4c-1.5,7.6,5.1,5.3,5.1,5.3c14.2-8.1,25.5-7.4,34.2-3.1
		C141,10.6,133,4.4,128.9,2.2z"/>
	<path fill="#FCD116" d="M158.7,26.6c-12.6-27-32.9-24.4-32.9-24.4c19,12.4,11.3,49.5-23.7,82.2c-9.5,8.9-18.1,14.9-25.7,18.9
		l0.8,3.2l13.5,9.9L116,112c6.6-6.3,11.3-11.4,11.3-11.4S171.8,54.6,158.7,26.6z"/>
	<path fill="#003893" d="M39.2,1c0,0-44.1,26.4,37.5,102.5c0,0,24.2,14.5,39.7,7.9c0,0-10.5,16-28.6,22.1
		c-13.7,4.6-25.8-3.3-32.5-9.2c-3.5-3.1-8.6-8.2-13.3-12.8c-10.1-9.9-27.6-29.3-38.1-53.9c-0.6-1.3-1.1-2.7-1.6-4
		c-0.3-0.7-1.2-4.2-1.4-5.3c-0.4-2.2-0.7-4.4-0.8-6.4C-1.7,0.1,39.2,1,39.2,1z"/>
	<path fill="#CCCCCC" d="M65.4,20.8c-1.2-6-10-21-28.8-19.7C33.1,5,24.4,16,27.2,22.5c8.7-3.7,19.7-4,33.1,3.7
		C60.3,26.1,66.9,28.4,65.4,20.8z"/>
	<path fill="#CCCCCC" d="M1.7,50.8"/>
	<path fill="#0D49A0" d="M1.1,48.2c0.1,0.5,0.4,1.7,0.7,2.7c0.2-0.5,8.5-21.3,25.8-28.6C28.8,7.2,39.2,1,39.2,1s-41-0.9-38.9,40.8
		C0.4,43.8,0.7,45.9,1.1,48.2z"/>
	<path fill="#032F6D" d="M76.8,103.4c0,0-0.1,0-0.4-0.1c-2.1,1.2-21,11.4-35.4,7c0.4,0.4,0.7,0.7,1.1,1.1c4.7,4.6,9.8,9.7,13.3,12.8
		c6.7,6,18.8,13.8,32.5,9.2c18.1-6.1,28.6-22.1,28.6-22.1C101,117.9,76.8,103.4,76.8,103.4z"/>
	<path fill="#FFE164" d="M135.9,24c0.4,0.2,13.6,5.5,22.9,27.5c2.7-8.8,3.3-17.4-0.2-24.9c-12.6-27-32.9-24.4-32.9-24.4
		C132.7,6.7,136.1,14.4,135.9,24z"/>
</g>
<g>
	<path fill="#FFFFFF" d="M153.6,117.4c-2.5-4-3.7-8.6-3.7-13.7c0-5.2,1.2-9.7,3.7-13.7c2.5-4,5.8-7,9.9-9.2
		c4.2-2.1,8.8-3.2,13.9-3.2c5.1,0,9.8,1.1,13.9,3.2c4.2,2.1,7.5,5.2,9.9,9.2c2.5,4,3.7,8.6,3.7,13.7c0,5.2-1.2,9.7-3.7,13.7
		c-2.5,4-5.8,7-9.9,9.2c-4.2,2.1-8.8,3.2-13.9,3.2c-5.1,0-9.8-1.1-13.9-3.2C159.4,124.4,156.1,121.4,153.6,117.4z M168.5,94.6
		c-2.2,2.3-3.3,5.3-3.3,9.1c0,3.8,1.1,6.8,3.3,9.1c2.2,2.3,5.2,3.4,9,3.4s6.8-1.1,9-3.4c2.2-2.3,3.3-5.3,3.3-9.1
		c0-3.8-1.1-6.8-3.3-9.1c-2.2-2.3-5.2-3.4-9-3.4S170.7,92.3,168.5,94.6z"/>
	<path fill="#FFFFFF" d="M220.9,128.5V51.3h15.3v77.2H220.9z"/>
	<path fill="#FFFFFF" d="M253.8,106.3V78.9h15.3v24.3c0,1.1,0,2,0,2.6c0,0.6,0.1,1.4,0.2,2.5c0.1,1,0.3,1.9,0.4,2.5
		c0.2,0.6,0.5,1.3,0.9,2.1c0.4,0.8,0.8,1.4,1.4,1.8c0.5,0.4,1.2,0.8,2.1,1.1c0.8,0.3,1.8,0.4,2.9,0.4c1.5,0,2.9-0.2,4-0.7
		c1.1-0.5,2-1.1,2.7-1.9c0.6-0.8,1.2-1.7,1.6-2.9c0.4-1.1,0.7-2.3,0.8-3.4c0.1-1.1,0.2-2.4,0.2-3.8V78.9h15.3v49.6h-14.7v-6.7h-0.2
		c-1.2,2.2-3,4.1-5.5,5.6c-2.5,1.6-5.5,2.3-9,2.3c-3,0-5.6-0.4-7.9-1.2c-2.2-0.8-4-1.9-5.3-3.2c-1.3-1.3-2.4-3-3.2-5.1
		c-0.8-2.1-1.3-4.2-1.6-6.4C254,111.6,253.8,109.1,253.8,106.3z"/>
	<path fill="#FFFFFF" d="M319.1,128.5V78.9h14.7v6.7h0.2c1.2-2.2,3-4.1,5.5-5.6c2.5-1.6,5.5-2.3,9-2.3c3,0,5.6,0.4,7.9,1.2
		c2.2,0.8,4,1.9,5.3,3.2c1.3,1.3,2.4,3.1,3.2,5.1c0.8,2.1,1.3,4.2,1.6,6.4c0.3,2.2,0.4,4.7,0.4,7.6v27.4h-15.3v-24.3
		c0-1.3,0-2.3-0.1-3c0-0.7-0.1-1.7-0.2-2.9c-0.1-1.2-0.4-2.1-0.7-2.8c-0.4-0.7-0.8-1.4-1.4-2.2c-0.6-0.7-1.3-1.3-2.3-1.6
		c-0.9-0.3-2.1-0.5-3.3-0.5c-1.9,0-3.5,0.3-4.8,1c-1.3,0.7-2.2,1.7-2.8,2.9c-0.6,1.3-1,2.6-1.2,3.9c-0.2,1.3-0.3,2.9-0.3,4.8v24.7
		H319.1z"/>
	<path fill="#FFFFFF" d="M379.4,91.1V78.9h9.8V64.2h15.3v14.7H418v12.2h-13.5v16.6c0,1.5,0.1,2.8,0.2,3.7c0.1,0.9,0.5,1.9,0.9,2.8
		c0.5,0.9,1.2,1.6,2.2,2c1,0.4,2.3,0.6,3.9,0.6c3.1,0,5.2-0.5,6.2-1.4v12.8c-2.8,1-6.4,1.5-10.7,1.5c-2.6,0-5-0.3-7.2-0.8
		c-2.1-0.6-4-1.4-5.7-2.6c-1.6-1.2-2.9-2.7-3.8-4.7c-0.9-2-1.4-4.3-1.4-6.9V91.1H379.4z"/>
	<path fill="#FFFFFF" d="M434.6,117.4c-2.5-4-3.7-8.6-3.7-13.7c0-5.2,1.2-9.7,3.7-13.7c2.5-4,5.8-7,9.9-9.1
		c4.2-2.1,8.8-3.2,13.9-3.2c7.1,0,12.8,2.4,17,7.1c4.2,4.7,6.3,11,6.3,18.9v4.8h-35.6c0.6,2.9,2,5.3,4,7c2,1.7,4.5,2.6,7.5,2.6
		c4.4,0,8-2,11-6l10.7,7.9c-2.4,3.1-5.5,5.5-9.2,7.2c-3.7,1.7-7.6,2.6-11.7,2.6c-5.1,0-9.8-1.1-13.9-3.2
		C440.4,124.4,437.1,121.4,434.6,117.4z M446.2,98.1h20.2c0-0.1,0-0.2,0-0.3c0-2.5-0.9-4.6-2.6-6.4c-1.8-1.9-4.1-2.8-6.8-2.7
		c-3.2,0-5.7,0.9-7.7,2.8C447.5,93.3,446.4,95.5,446.2,98.1z"/>
	<path fill="#FFFFFF" d="M499.9,117.4c-2.5-4-3.7-8.6-3.7-13.7c0-5.2,1.2-9.7,3.7-13.7c2.5-4,5.8-7,9.9-9.1
		c4.2-2.1,8.8-3.2,13.9-3.2c7.1,0,12.8,2.4,17,7.1c4.2,4.7,6.3,11,6.3,18.9v4.8h-35.6c0.6,2.9,2,5.3,4,7c2,1.7,4.5,2.6,7.5,2.6
		c4.4,0,8-2,11-6l10.7,7.9c-2.4,3.1-5.5,5.5-9.2,7.2c-3.7,1.7-7.6,2.6-11.7,2.6c-5.1,0-9.8-1.1-13.9-3.2
		C505.6,124.4,502.3,121.4,499.9,117.4z M511.4,98.1h20.2c0-0.1,0-0.2,0-0.3c0-2.5-0.9-4.6-2.6-6.4c-1.8-1.9-4.1-2.8-6.8-2.7
		c-3.2,0-5.7,0.9-7.7,2.8C512.7,93.3,511.6,95.5,511.4,98.1z"/>
	<path fill="#FFFFFF" d="M562.9,128.5V78.9h15.3v7.9h0.2c1.7-3.1,3.7-5.4,6-6.9c2.3-1.5,5.1-2.3,8.4-2.3c2.2,0,3.9,0.2,5.1,0.5v14
		c-2.5-0.7-4.7-1-6.5-1c-2.3,0-4.2,0.3-5.8,0.8c-1.6,0.5-2.9,1.3-3.8,2.1c-0.9,0.9-1.7,2.1-2.2,3.6c-0.5,1.5-0.9,3-1,4.5
		c-0.2,1.5-0.2,3.4-0.2,5.6v20.7H562.9z"/>
	<path fill="#FFFFFF" d="M608.1,123l9.3-10.3c2.9,3.6,6.5,5.4,10.8,5.4c2,0,3.6-0.3,4.9-0.9c1.3-0.6,2-1.5,2-2.7
		c0-0.9-0.4-1.7-1.1-2.4c-0.7-0.6-1.7-1.1-2.9-1.5c-1.2-0.3-2.6-0.7-4.1-1c-1.5-0.4-3.1-0.7-4.8-1c-1.6-0.3-3.2-0.9-4.8-1.6
		c-1.5-0.7-2.9-1.6-4.1-2.6c-1.2-1-2.2-2.3-2.9-4c-0.7-1.7-1.1-3.7-1.1-6c0-2.8,0.6-5.3,1.8-7.5c1.2-2.2,2.8-3.9,4.8-5.3
		c2-1.3,4.2-2.3,6.6-3c2.4-0.7,5-1,7.7-1c8.1,0,14.3,2.2,18.3,6.5l-9.4,9.3c-2.3-2.8-5.3-4.2-8.9-4.2c-1.5,0-2.8,0.3-3.9,1
		c-1.1,0.7-1.7,1.7-1.7,3c0,1,0.5,1.8,1.4,2.4c0.9,0.6,2.2,1.1,3.7,1.5c1.5,0.4,3.2,0.7,5,1.1c1.8,0.4,3.7,0.9,5.5,1.6
		c1.8,0.7,3.5,1.5,5,2.5c1.5,1,2.8,2.4,3.7,4.3c0.9,1.9,1.4,4.1,1.4,6.7c0,2.4-0.5,4.6-1.4,6.5s-2.1,3.5-3.6,4.7
		c-1.5,1.2-3.3,2.2-5.3,3c-2,0.8-4.1,1.3-6.1,1.6c-2.1,0.3-4.2,0.5-6.5,0.5c-3.8,0-7.4-0.5-10.9-1.6
		C613.3,127,610.4,125.3,608.1,123z"/>
</g>
<g>
	<path fill="#FCD116" d="M254.9,56.3V18.6h6.6l12.8,29.5h0.1l12.8-29.5h6.5v37.6h-4.5V24.7h-0.1l-13.5,31.6H273l-13.5-31.6h-0.1
		v31.6H254.9z"/>
	<path fill="#FCD116" d="M302.4,45.3c-1-2.4-1.5-5.1-1.5-7.9c0-2.8,0.5-5.4,1.5-7.9c1-2.4,2.3-4.5,4.1-6.3c1.7-1.7,3.8-3.1,6.3-4.1
		c2.4-1,5.1-1.5,7.9-1.5c2.8,0,5.4,0.5,7.9,1.5c2.4,1,4.5,2.4,6.3,4.1c1.7,1.7,3.1,3.8,4.1,6.3c1,2.4,1.5,5.1,1.5,7.9
		c0,2.8-0.5,5.4-1.5,7.9c-1,2.4-2.3,4.5-4.1,6.3c-1.7,1.7-3.8,3.1-6.3,4.1c-2.4,1-5.1,1.5-7.9,1.5c-2.8,0-5.4-0.5-7.9-1.5
		c-2.4-1-4.5-2.4-6.3-4.1C304.8,49.9,303.4,47.8,302.4,45.3z M307.6,29.6c-1.2,2.4-1.9,5-1.9,7.9c0,2.9,0.6,5.5,1.9,7.9
		c1.2,2.4,3,4.3,5.3,5.7c2.3,1.4,4.9,2.1,7.7,2.1s5.4-0.7,7.7-2.1c2.3-1.4,4-3.3,5.3-5.7c1.2-2.4,1.9-5,1.9-7.9
		c0-2.9-0.6-5.5-1.9-7.9c-1.2-2.4-3-4.3-5.3-5.7c-2.3-1.4-4.9-2.1-7.7-2.1s-5.4,0.7-7.7,2.1C310.6,25.3,308.8,27.2,307.6,29.6z"/>
	<path fill="#FCD116" d="M347.4,56.3V18.6h5.6l21.8,31.2h0.1V18.6h4.5v37.6h-5.6L352,25h-0.1v31.2H347.4z"/>
	<path fill="#FCD116" d="M388.8,56.3V18.6h9.6c1.2,0,2.2,0,3.1,0.1c0.9,0.1,1.9,0.2,3,0.4c1.1,0.2,2,0.4,2.8,0.7
		c0.8,0.3,1.6,0.7,2.4,1.2c0.8,0.5,1.4,1.1,1.9,1.8c0.5,0.7,0.9,1.6,1.2,2.6c0.3,1,0.5,2.2,0.5,3.5c0,2.7-0.8,4.9-2.5,6.7
		c-1.7,1.7-4,2.8-6.9,3.3l10.7,17.3h-5.5L399,39.4h-5.7v16.9H388.8z M393.2,35.2h4c1.1,0,2,0,2.6,0c0.6,0,1.4-0.1,2.5-0.2
		c1.1-0.1,1.9-0.3,2.5-0.6c0.6-0.3,1.2-0.6,1.9-1.1c0.7-0.4,1.1-1,1.4-1.8c0.3-0.7,0.5-1.6,0.5-2.6c0-1-0.2-1.9-0.5-2.7
		c-0.4-0.8-0.8-1.4-1.4-1.8c-0.6-0.4-1.3-0.8-2.1-1.1s-1.6-0.4-2.4-0.5c-0.8-0.1-1.7-0.1-2.6-0.1h-6.3V35.2z"/>
	<path fill="#FCD116" d="M420.5,45.3c-1-2.4-1.5-5.1-1.5-7.9c0-2.8,0.5-5.4,1.5-7.9c1-2.4,2.3-4.5,4.1-6.3c1.7-1.7,3.8-3.1,6.3-4.1
		s5.1-1.5,7.9-1.5c2.8,0,5.4,0.5,7.9,1.5c2.4,1,4.5,2.4,6.3,4.1c1.7,1.7,3.1,3.8,4.1,6.3c1,2.4,1.5,5.1,1.5,7.9
		c0,2.8-0.5,5.4-1.5,7.9c-1,2.4-2.3,4.5-4.1,6.3c-1.7,1.7-3.8,3.1-6.3,4.1c-2.4,1-5.1,1.5-7.9,1.5c-2.8,0-5.4-0.5-7.9-1.5
		s-4.5-2.4-6.3-4.1C422.9,49.9,421.5,47.8,420.5,45.3z M425.7,29.6c-1.2,2.4-1.9,5-1.9,7.9c0,2.9,0.6,5.5,1.9,7.9
		c1.2,2.4,3,4.3,5.3,5.7c2.3,1.4,4.9,2.1,7.7,2.1s5.4-0.7,7.7-2.1c2.3-1.4,4-3.3,5.3-5.7c1.2-2.4,1.9-5,1.9-7.9
		c0-2.9-0.6-5.5-1.9-7.9c-1.2-2.4-3-4.3-5.3-5.7c-2.3-1.4-4.9-2.1-7.7-2.1s-5.4,0.7-7.7,2.1C428.7,25.3,426.9,27.2,425.7,29.6z"/>
	<path fill="#FCD116" d="M465.6,56.3V18.6h23.7v4.2H470v11.8h17.9v4.2H470v13.4h20.1v4.2H465.6z"/>
	<path fill="#FCD116" d="M509.6,37.5c0-3.7,0.8-7,2.4-10c1.6-3,3.9-5.4,6.8-7.1c2.9-1.8,6.2-2.6,9.9-2.6c2.7,0,5.2,0.5,7.5,1.5
		s4.2,2.4,5.8,4.4l-3.9,2.8c-1.1-1.5-2.5-2.6-4.1-3.4c-1.7-0.8-3.4-1.2-5.3-1.2c-2.7,0-5.2,0.7-7.4,2.2c-2.2,1.5-3.9,3.4-5.1,5.8
		c-1.2,2.4-1.8,4.9-1.8,7.7c0,2.9,0.6,5.5,1.8,7.9c1.2,2.4,2.9,4.3,5.1,5.6c2.2,1.4,4.7,2.1,7.4,2.1c4.5,0,8.1-1.8,10.9-5.3l3.3,2.8
		c-3.3,4.4-8,6.6-14.2,6.6c-3.6,0-6.8-0.8-9.7-2.5c-2.9-1.7-5.2-4.1-6.9-7.1C510.5,44.6,509.6,41.2,509.6,37.5z"/>
	<path fill="#FCD116" d="M548.5,45.3c-1-2.4-1.5-5.1-1.5-7.9c0-2.8,0.5-5.4,1.5-7.9c1-2.4,2.3-4.5,4.1-6.3c1.7-1.7,3.8-3.1,6.3-4.1
		c2.4-1,5.1-1.5,7.9-1.5c2.8,0,5.4,0.5,7.9,1.5s4.5,2.4,6.3,4.1c1.7,1.7,3.1,3.8,4.1,6.3c1,2.4,1.5,5.1,1.5,7.9
		c0,2.8-0.5,5.4-1.5,7.9c-1,2.4-2.3,4.5-4.1,6.3c-1.7,1.7-3.8,3.1-6.3,4.1s-5.1,1.5-7.9,1.5c-2.8,0-5.4-0.5-7.9-1.5
		c-2.4-1-4.5-2.4-6.3-4.1C550.9,49.9,549.5,47.8,548.5,45.3z M553.7,29.6c-1.2,2.4-1.9,5-1.9,7.9c0,2.9,0.6,5.5,1.9,7.9
		c1.2,2.4,3,4.3,5.3,5.7c2.3,1.4,4.9,2.1,7.7,2.1s5.4-0.7,7.7-2.1c2.3-1.4,4-3.3,5.3-5.7c1.2-2.4,1.9-5,1.9-7.9
		c0-2.9-0.6-5.5-1.9-7.9c-1.2-2.4-3-4.3-5.3-5.7c-2.3-1.4-4.9-2.1-7.7-2.1s-5.4,0.7-7.7,2.1C556.7,25.3,554.9,27.2,553.7,29.6z"/>
</g>
<g>
	<rect x="602.8" y="12.2" fill="#CE1126" width="47.6" height="46"/>
	<g>
		<path fill="#FFFFFF" d="M613.7,50.1V20.7h6.5v29.4H613.7z"/>
		<path fill="#FFFFFF" d="M626.4,50.1V20.7h6.5v23.4h12v6H626.4z"/>
	</g>
</g>
</svg>
